<?xml version="1.0" encoding="UTF-8" standalone="no"?>
<!DOCTYPE svg PUBLIC "-//W3C//DTD SVG 1.1//EN" "http://www.w3.org/Graphics/SVG/1.1/DTD/svg11.dtd">
<svg width="100%" height="100%" viewBox="0 0 5499 881" version="1.1" xmlns="http://www.w3.org/2000/svg" xmlns:xlink="http://www.w3.org/1999/xlink" xml:space="preserve" xmlns:serif="http://www.serif.com/" style="fill-rule:evenodd;clip-rule:evenodd;stroke-linejoin:round;stroke-miterlimit:2;">
    <path d="M30.117,865.625C20.703,857.005 15.977,844.922 15.977,829.362L15.977,310.859C15.977,295.313 20.703,283.216 30.117,274.622C39.505,265.99 51.615,261.693 66.354,261.693C81.107,261.693 92.969,265.99 101.992,274.622C110.99,283.216 115.521,295.313 115.521,310.859L115.521,829.362C115.521,845.755 110.99,858.047 101.992,866.224C92.969,874.388 81.107,878.516 66.354,878.516C51.615,878.516 39.505,874.219 30.117,865.625ZM18.451,115.482C6.146,104.037 0,88.893 0,70.026C0,52.031 6.146,37.292 18.451,25.794C30.716,14.349 46.719,8.594 66.354,8.594C86.029,8.594 101.992,14.349 114.297,25.794C126.563,37.292 132.708,52.031 132.708,70.026C132.708,88.893 126.563,104.037 114.297,115.482C101.992,126.979 86.029,132.708 66.354,132.708C46.719,132.708 30.716,126.979 18.451,115.482Z" style="fill:rgb(15,35,45);fill-rule:nonzero;"/>
    <path d="M538.776,864.375C529.362,854.974 524.661,842.474 524.661,826.914L524.661,92.135L260.482,92.135C245.742,92.135 234.271,88.464 226.068,81.094C217.878,73.724 213.802,63.073 213.802,49.128C213.802,35.208 217.878,24.57 226.068,17.201C234.271,9.818 245.742,6.146 260.482,6.146L890.794,6.146C905.534,6.146 917.005,9.818 925.208,17.201C933.372,24.57 937.5,35.208 937.5,49.128C937.5,63.073 933.372,73.724 925.208,81.094C917.005,88.464 905.534,92.135 890.794,92.135L626.641,92.135L626.641,826.914C626.641,842.474 622.122,854.974 613.125,864.375C604.102,873.789 591.797,878.516 576.263,878.516C560.69,878.516 548.203,873.789 538.776,864.375Z" style="fill:rgb(15,35,45);fill-rule:nonzero;"/>
    <path d="M1497.79,318.854C1533.83,358.594 1551.84,417.734 1551.84,496.38L1551.84,829.362C1551.84,844.922 1547.34,857.005 1538.35,865.625C1529.32,874.219 1517.46,878.516 1502.71,878.516C1487.15,878.516 1474.84,874.219 1465.85,865.625C1456.84,857.005 1452.33,844.922 1452.33,829.362L1452.33,498.828C1452.33,445.599 1441.46,406.302 1419.77,380.885C1398.05,355.521 1363.44,342.787 1315.92,342.787C1261.06,342.787 1217.21,359.583 1184.49,393.177C1151.69,426.771 1135.33,472.253 1135.33,529.583L1135.33,829.362C1135.33,844.922 1131.03,857.005 1122.43,865.625C1113.84,874.219 1101.75,878.516 1086.17,878.516C1070.6,878.516 1058.33,874.219 1049.31,865.625C1040.29,857.005 1035.79,844.922 1035.79,829.362L1035.79,47.904C1035.79,33.984 1040.51,22.552 1049.93,13.516C1059.32,4.492 1071.42,0 1086.17,0C1101.75,0 1113.84,4.297 1122.43,12.891C1131.03,21.497 1135.33,33.164 1135.33,47.904L1135.33,369.844C1154.99,333.802 1182.41,306.367 1217.64,287.513C1252.85,268.672 1293,259.245 1338.05,259.245C1408.5,259.245 1461.73,279.115 1497.79,318.854Z" style="fill:rgb(15,35,45);fill-rule:nonzero;"/>
    <path d="M2081.41,303.49C2081.41,316.615 2077.71,327.057 2070.34,334.831C2062.97,342.63 2050.27,347.318 2032.25,348.945L1995.39,352.643C1940.52,357.539 1899.75,377.005 1873.14,410.99C1846.5,444.987 1833.2,484.909 1833.2,530.794L1833.2,829.362C1833.2,845.755 1828.68,858.047 1819.69,866.224C1810.66,874.388 1798.79,878.516 1784.05,878.516C1769.31,878.516 1757.2,874.219 1747.81,865.625C1738.4,857.005 1733.67,844.922 1733.67,829.362L1733.67,310.859C1733.67,295.313 1738.59,283.216 1748.41,274.622C1758.26,265.99 1770.13,261.693 1784.05,261.693C1797.15,261.693 1808.22,265.99 1817.24,274.622C1826.24,283.216 1830.76,294.896 1830.76,309.635L1830.76,378.438C1847.96,342.396 1872.32,314.961 1903.85,296.107C1935.39,277.266 1971.63,266.224 2012.59,262.93L2029.81,261.693C2064.19,259.245 2081.41,273.203 2081.41,303.49Z" style="fill:rgb(15,35,45);fill-rule:nonzero;"/>
    <path d="M2181.52,865.625C2172.1,857.005 2167.36,844.922 2167.36,829.362L2167.36,310.859C2167.36,295.313 2172.1,283.216 2181.52,274.622C2190.91,265.99 2203.01,261.693 2217.76,261.693C2232.5,261.693 2244.36,265.99 2253.4,274.622C2262.38,283.216 2266.91,295.313 2266.91,310.859L2266.91,829.362C2266.91,845.755 2262.38,858.047 2253.4,866.224C2244.36,874.388 2232.5,878.516 2217.76,878.516C2203.01,878.516 2190.91,874.219 2181.52,865.625ZM2169.86,115.482C2157.54,104.037 2151.41,88.893 2151.41,70.026C2151.41,52.031 2157.54,37.292 2169.86,25.794C2182.12,14.349 2198.11,8.594 2217.76,8.594C2237.42,8.594 2253.4,14.349 2265.69,25.794C2277.96,37.292 2284.1,52.031 2284.1,70.026C2284.1,88.893 2277.96,104.037 2265.69,115.482C2253.4,126.979 2237.42,132.708 2217.76,132.708C2198.11,132.708 2182.12,126.979 2169.86,115.482Z" style="fill:rgb(15,35,45);fill-rule:nonzero;"/>
    <path d="M2926.74,262.93C2939.01,262.93 2950.08,267.044 2959.91,275.221C2969.74,283.412 2974.64,293.659 2974.64,305.938C2974.64,313.307 2972.98,319.883 2969.74,325.599L2730.14,841.654C2725.21,852.305 2717.84,860.703 2708.02,866.849C2698.2,872.995 2687.53,876.042 2676.08,876.042C2665.4,876.042 2655.2,872.995 2645.37,866.849C2635.52,860.703 2627.72,852.305 2622.01,841.654L2383.65,325.599C2380.36,319.883 2378.72,313.724 2378.72,307.162C2378.72,294.896 2384.27,284.245 2395.31,275.221C2406.38,266.224 2418.46,261.693 2431.58,261.693C2439.74,261.693 2447.75,264.18 2455.52,269.076C2463.31,273.997 2469.23,280.964 2473.33,289.961L2678.53,750.742L2883.72,292.409C2892.72,272.774 2907.07,262.93 2926.74,262.93Z" style="fill:rgb(15,35,45);fill-rule:nonzero;"/>
    <path d="M3198.88,385.807C3167.32,418.568 3148.67,464.87 3142.94,524.648L3490.69,524.648C3489.04,464.05 3473.87,417.578 3445.21,385.182C3416.55,352.839 3376.42,336.641 3324.81,336.641C3272.38,336.641 3230.39,353.034 3198.88,385.807ZM3563.16,744.596C3569.71,751.966 3573.02,761.38 3573.02,772.865C3573.02,793.32 3558.67,812.162 3530.01,829.362C3500.51,846.575 3469.39,859.479 3436.62,868.073C3403.85,876.667 3371.91,880.964 3340.78,880.964C3248.2,880.964 3175.12,853.529 3121.46,798.646C3067.81,743.763 3040.99,667.995 3040.99,571.328C3040.99,509.909 3052.83,455.651 3076.6,408.542C3100.38,361.445 3133.75,324.805 3176.77,298.555C3219.75,272.37 3268.7,259.245 3323.58,259.245C3401.41,259.245 3463.23,284.649 3509.12,335.417C3554.97,386.224 3577.9,455.026 3577.9,541.836C3577.9,558.242 3574.65,570.104 3568.1,577.474C3561.52,584.857 3550.9,588.555 3536.15,588.555L3140.51,588.555C3147.88,729.453 3214.62,799.87 3340.78,799.87C3372.75,799.87 3400.16,795.573 3423.1,786.979C3446.04,778.385 3470.6,766.706 3496.81,751.966C3518.11,739.661 3532.45,733.516 3539.83,733.516C3548.84,733.516 3556.63,737.214 3563.16,744.596Z" style="fill:rgb(15,35,45);fill-rule:nonzero;"/>
    <path d="M4544.28,14.115C4552.88,23.542 4557.18,36.042 4557.18,51.615L4557.18,829.362C4557.18,844.102 4553.09,856.003 4544.92,865C4536.72,873.984 4525.25,878.516 4510.51,878.516C4495.77,878.516 4484.71,873.984 4477.34,865C4469.97,856.003 4466.28,844.102 4466.28,829.362L4466.28,201.497L4199.65,712.63C4188.18,736.393 4171.39,748.268 4149.26,748.268C4127.96,748.268 4111.19,736.393 4098.88,712.63L3831.04,207.643L3831.04,829.362C3831.04,844.102 3827.14,856.003 3819.36,865C3811.58,873.984 3800.34,878.516 3785.59,878.516C3770.85,878.516 3759.34,873.984 3751.17,865C3742.97,856.003 3738.88,844.102 3738.88,829.362L3738.88,51.615C3738.88,36.042 3743.37,23.542 3752.4,14.115C3761.42,4.727 3773.68,0 3789.26,0C3809.71,0 3826.12,11.875 3838.41,35.638L4150.49,634.01L4458.91,35.638C4465.46,22.552 4472.62,13.32 4480.39,7.969C4488.19,2.682 4497.38,0 4508.06,0C4523.59,0 4535.69,4.727 4544.28,14.115Z" style="fill:rgb(71,198,238);fill-rule:nonzero;"/>
    <path d="M5057.24,786.354C5281.68,786.354 5393.91,670.469 5393.91,438.633C5393.91,207.643 5281.68,92.135 5057.24,92.135L4872.93,92.135L4872.93,786.354L5057.24,786.354ZM4786.32,858.854C4776.9,849.857 4772.17,837.956 4772.17,823.203L4772.17,55.274C4772.17,40.534 4776.9,28.659 4786.32,19.648C4795.72,10.651 4808.22,6.146 4823.78,6.146L5063.39,6.146C5201.81,6.146 5308.92,43.607 5384.69,118.555C5460.43,193.529 5498.35,300.208 5498.35,438.633C5498.35,577.083 5460.26,683.971 5384.06,759.336C5307.9,834.714 5201.02,872.37 5063.39,872.37L4823.78,872.37C4808.22,872.37 4795.72,867.878 4786.32,858.854Z" style="fill:rgb(71,198,238);fill-rule:nonzero;"/>
</svg>
